<svg width="24" height="24" viewBox="0 0 24 24" fill="white" xmlns="http://www.w3.org/2000/svg">
  <path d="M16.365 1.43c0 1.14-.417 2.21-1.103 2.99-.75.85-1.97 1.5-3.03 1.42-.135-1.11.36-2.25 1.04-3.03.75-.86 2.06-1.52 3.093-1.38zM20.07 17.12c-.83 1.85-1.22 2.68-2.28 4.25-1.48 2.2-3.57 4.93-6.16 4.95-2.31.02-2.91-1.5-5.57-1.48-2.67.02-3.33 1.5-5.64 1.48-2.59-.02-4.55-2.49-6.03-4.68C-1.52 18.21-2.7 12.33-.14 8.35c1.28-2.04 3.57-3.32 5.69-3.32 2.2 0 3.58 1.5 5.39 1.5 1.76 0 2.83-1.5 5.38-1.5 1.88 0 3.88 1.02 5.16 2.8-4.56 2.5-3.83 9.02.58 9.29z"/>
</svg>